<?xml version="1.0" encoding="UTF-8"?>
<svg id="Ebene_1" xmlns="http://www.w3.org/2000/svg" viewBox="0 0 6779 2800" preserveAspectRatio="xMidYMid slice">
  <!-- Generator: Adobe Illustrator 29.1.0, SVG Export Plug-In . SVG Version: 2.1.0 Build 142)  -->
  <defs>
    <style>
      .st0 {
        fill: #b4b4b4;
      }

      .st1 {
        fill: #b384b9;
      }

      .st2 {
        fill: #753a8e;
      }

      .st3 {
        fill: #65328a;
      }

      .st4 {
        fill: #9d9d9c;
      }

      .st5 {
        fill: #66328a;
      }
    </style>
  </defs>
  <g id="Backgrounde">
    <rect class="st0" x="1.1" y="1" width="6777.9" height="2798.9" />
    <polygon class="st2" points="2341.7 2799.9 3535.6 1 6779 1 6779 2799.9 2341.7 2799.9" />
    <g id="pline2" transform="translate(0, 0)">
        <g>
            <polygon class="st3" points="0 2800 1193.7 1.1 1200.3 1.1 8.6 2800 0 2800" />
            <polygon class="st3" points="18.5 2800 1212.1 1 1218.8 1 26.6 2800 18.5 2800" />
            <polygon class="st3" points="36.7 2800 1230.4 1 1237.0 1 44.8 2800 36.7 2800" />
            <polygon class="st3" points="54.3 2800 1247.9 1 1254.6 1 62.4 2800 54.3 2800" />
            <polygon class="st3" points="72.8 2800 1266.4 1 1273.1 1 80.9 2800 72.8 2800" />
            <polygon class="st3" points="90.8 2800 1284.5 1 1291.2 1 98.9 2800 90.8 2800" />
            <polygon class="st3" points="109.1 2800 1302.7 1 1309.4 1 117.2 2800 109.1 2800" />
        </g>
        <!-- Motion Path Animation -->
        <animateTransform
            attributeName="transform"
            type="translate"
            from="1157,2800"
            to="3535,-2800"   
            dur="25s"
            repeatCount="indefinite"
        />
    </g>
  <g id="pline1">
    <g>
      <g>
        <polygon class="st5" points="3643.3 2799.9 4836.9 1 4843.6 1 3651.9 2799.9 3643.3 2799.9" />
        <polygon class="st5" points="3661.8 2799.7 4855.4 .8 4862.1 .8 3670.3 2799.7 3661.8 2799.7" />
        <polygon class="st5" points="3680 2799.7 4873.7 .8 4880.3 .8 3688.6 2799.7 3680 2799.7" />
        <polygon class="st5" points="3697.6 2799.7 4891.2 .8 4897.9 .8 3706.1 2799.7 3697.6 2799.7" />
        <polygon class="st5" points="3716.1 2799.7 4909.7 .8 4916.4 .8 3724.6 2799.7 3716.1 2799.7" />
        <polygon class="st5" points="3734.1 2799.7 4927.8 .8 4934.4 .8 3742.7 2799.7 3734.1 2799.7" />
        <polygon class="st5" points="3752.4 2799.7 4946 .8 4952.7 .8 3760.9 2799.7 3752.4 2799.7" />
      </g>
      
      <g>
        <polygon class="st5" points="3769.2 2800 4962.8 1.1 4969.5 1.1 3777.7 2800 3769.2 2800" />
        <polygon class="st5" points="3787.7 2799.9 4981.3 1 4988 1 3796.2 2799.9 3787.7 2799.9" />
        <polygon class="st5" points="3805.9 2799.9 4999.5 1 5006.2 1 3814.5 2799.9 3805.9 2799.9" />
        <polygon class="st5" points="3823.4 2799.9 5017.1 1 5023.7 1 3832 2799.9 3823.4 2799.9" />
        <polygon class="st5" points="3842 2799.9 5035.6 1 5042.3 1 3850.5 2799.9 3842 2799.9" />
        <polygon class="st5" points="3860 2799.9 5053.6 1 5060.3 1 3868.6 2799.9 3860 2799.9" />
        <polygon class="st5" points="3878.2 2799.9 5071.9 1 5078.5 1 3886.8 2799.9 3878.2 2799.9" />
      </g>
      <g>
        <polygon class="st5" points="3895.5 2799.7 5089.1 .8 5095.8 .8 3904 2799.7 3895.5 2799.7" />
        <polygon class="st5" points="3913.9 2799.6 5107.6 .7 5114.2 .7 3922.5 2799.6 3913.9 2799.6" />
        <polygon class="st5" points="3932.2 2799.6 5125.8 .7 5132.5 .7 3940.7 2799.6 3932.2 2799.6" />
        <polygon class="st5" points="3949.7 2799.6 5143.4 .7 5150 .7 3958.3 2799.6 3949.7 2799.6" />
        <polygon class="st5" points="3968.2 2799.6 5161.9 .7 5168.5 .7 3976.8 2799.6 3968.2 2799.6" />
        <polygon class="st5" points="3986.3 2799.6 5179.9 .7 5186.6 .7 3994.8 2799.6 3986.3 2799.6" />
        <polygon class="st5" points="4004.5 2799.6 5198.2 .7 5204.8 .7 4013.1 2799.6 4004.5 2799.6" />
      </g>
      <g>
        <polygon class="st5" points="4022.9 2799.7 5216.5 .8 5223.2 .8 4031.5 2799.7 4022.9 2799.7" />
        <polygon class="st5" points="4041.4 2799.6 5235 .7 5241.7 .7 4049.9 2799.6 4041.4 2799.6" />
        <polygon class="st5" points="4059.6 2799.6 5253.3 .7 5259.9 .7 4068.2 2799.6 4059.6 2799.6" />
        <polygon class="st5" points="4077.2 2799.6 5270.8 .7 5277.5 .7 4085.7 2799.6 4077.2 2799.6" />
        <polygon class="st5" points="4095.7 2799.6 5289.3 .7 5296 .7 4104.3 2799.6 4095.7 2799.6" />
        <polygon class="st5" points="4113.7 2799.6 5307.4 .7 5314 .7 4122.3 2799.6 4113.7 2799.6" />
        <polygon class="st5" points="4132 2799.6 5325.6 .7 5332.3 .7 4140.5 2799.6 4132 2799.6" />
      </g>
      <g>
        <polygon class="st5" points="4149.2 2799.6 5342.8 .7 5349.5 .7 4157.7 2799.6 4149.2 2799.6" />
        <polygon class="st5" points="4167.6 2799.4 5361.3 .6 5368 .6 4176.2 2799.4 4167.6 2799.4" />
        <polygon class="st5" points="4185.9 2799.4 5379.5 .6 5386.2 .6 4194.4 2799.4 4185.9 2799.4" />
        <polygon class="st5" points="4203.4 2799.4 5397.1 .6 5403.7 .6 4212 2799.4 4203.4 2799.4" />
        <polygon class="st5" points="4222 2799.4 5415.6 .6 5422.3 .6 4230.5 2799.4 4222 2799.4" />
        <polygon class="st5" points="4240 2799.4 5433.6 .6 5440.3 .6 4248.6 2799.4 4240 2799.4" />
        <polygon class="st5" points="4258.2 2799.4 5451.9 .6 5458.5 .6 4266.8 2799.4 4258.2 2799.4" />
      </g>
      <g>
        <polygon class="st5" points="4275.1 2799 5468.7 .1 5475.4 .1 4283.6 2799 4275.1 2799" />
        <polygon class="st5" points="4293.5 2798.9 5487.2 0 5493.8 0 4302.1 2798.9 4293.5 2798.9" />
        <polygon class="st5" points="4311.8 2798.9 5505.4 0 5512.1 0 4320.3 2798.9 4311.8 2798.9" />
        <polygon class="st5" points="4329.3 2798.9 5523 0 5529.6 0 4337.9 2798.9 4329.3 2798.9" />
        <polygon class="st5" points="4347.8 2798.9 5541.5 0 5548.2 0 4356.4 2798.9 4347.8 2798.9" />
        <polygon class="st5" points="4365.9 2798.9 5559.5 0 5566.2 0 4374.4 2798.9 4365.9 2798.9" />
        <polygon class="st5" points="4384.1 2798.9 5577.8 0 5584.4 0 4392.7 2798.9 4384.1 2798.9" />
        <polygon class="st5" points="4401.9 2799.3 5595.5 .4 5602.2 .4 4410.4 2799.3 4401.9 2799.3" />
      </g>
              <!-- Motion Path Animation -->
              <animateTransform
              attributeName="transform"
              type="translate"
              from="1135,-2800"
              to="-1243,2800" 
              dur="35s"
              repeatCount="indefinite"
          />
  </g>
  <g id="wline3">
    <g>
      <g>
        <polygon class="st4" points="878.7 1 38.8 1970.3 47.4 1970.3 885.9 1 878.7 1" />
        <polygon class="st4" points="897.1 1 57.3 1970.1 65.9 1970.1 904.3 1 897.1 1" />
        <polygon class="st4" points="915.3 1 75.5 1970.1 84.1 1970.1 922.5 1 915.3 1" />
        <polygon class="st4" points="932.9 1 93.1 1970.1 101.6 1970.1 940.1 1 932.9 1" />
        <polygon class="st4" points="951.4 1 111.6 1970.1 120.2 1970.1 958.6 1 951.4 1" />
        <polygon class="st4" points="969.4 1 129.7 1970.1 138.2 1970.1 976.7 1 969.4 1" />
        <polygon class="st4" points="987.7 1 147.9 1970.1 156.4 1970.1 994.9 1 987.7 1" />
      </g>
      <g>
        <polygon class="st4" points="1004.6 1 164.7 1970.4 173.3 1970.4 1011.8 1 1004.6 1" />
        <polygon class="st4" points="1023 1 183.2 1970.3 191.7 1970.3 1030.2 1 1023 1" />
        <polygon class="st4" points="1041.3 1 201.4 1970.3 210 1970.3 1048.5 1 1041.3 1" />
        <polygon class="st4" points="1058.8 1 219 1970.3 227.5 1970.3 1066 1 1058.8 1" />
        <polygon class="st4" points="1077.3 1 237.5 1970.3 246.1 1970.3 1084.6 1 1077.3 1" />
        <polygon class="st4" points="1095.4 1 255.5 1970.3 264.1 1970.3 1102.6 1 1095.4 1" />
        <polygon class="st4" points="1113.6 1 273.8 1970.3 282.3 1970.3 1120.8 1 1113.6 1" />
      </g>
      <g>
        <polygon class="st4" points="1130.8 1 291 1970.1 299.5 1970.1 1138 1 1130.8 1" />
        <polygon class="st4" points="1149.2 1 309.5 1970 318 1970 1156.4 1 1149.2 1" />
        <polygon class="st4" points="1167.4 1 327.7 1970 336.2 1970 1174.6 1 1167.4 1" />
        <polygon class="st4" points="1184.9 1 345.2 1970 353.8 1970 1192.2 1 1184.9 1" />
        <polygon class="st4" points="1203.5 1 363.8 1970 372.3 1970 1210.7 1 1203.5 1" />
        <polygon class="st4" points="1221.5 1 381.8 1970 390.4 1970 1228.7 1.1 1221.5 1" />
        <polygon class="st4" points="1239.7 1.1 400 1970 408.6 1970 1247 1.1 1239.7 1.1" />
      </g>
      <g>
        <polygon class="st4" points="1258.2 1.1 418.4 1970.1 427 1970.1 1265.4 1.1 1258.2 1.1" />
        <polygon class="st4" points="1276.6 1.1 436.9 1970 445.5 1970 1283.8 1.1 1276.6 1.1" />
        <polygon class="st4" points="1294.8 1.1 455.1 1970 463.7 1970 1302.1 1.1 1294.8 1.1" />
        <polygon class="st4" points="1312.4 1.1 472.7 1970 481.2 1970 1319.6 1.1 1312.4 1.1" />
        <polygon class="st4" points="1330.9 1.1 491.2 1970 499.8 1970 1338.1 1.1 1330.9 1.1" />
        <polygon class="st4" points="1349 1.1 509.3 1970 517.8 1970 1356.2 1.1 1349 1.1" />
        <polygon class="st4" points="1367.2 1.1 527.5 1970 536.1 1970 1374.4 1.1 1367.2 1.1" />
      </g>
      <g>
        <polygon class="st4" points="1384.4 1.1 544.7 1970 553.3 1970 1391.6 1.1 1384.4 1.1" />
        <polygon class="st4" points="1402.8 1.1 563.2 1969.9 571.7 1969.9 1410 1.1 1402.8 1.1" />
        <polygon class="st4" points="1421 1.1 581.4 1969.9 590 1969.9 1428.3 1.1 1421 1.1" />
        <polygon class="st4" points="599 1969.9 607.5 1969.9 1445.8 1.1 1438.6 1.1 599 1969.9" />
        <polygon class="st4" points="617.5 1969.9 626 1969.9 1464.3 1.1 1457.1 1.1 617.5 1969.9" />
        <polygon class="st4" points="635.5 1969.9 644.1 1969.9 1482.4 1.1 1475.2 1.1 635.5 1969.9" />
        <polygon class="st4" points="653.8 1969.9 662.3 1969.9 1500.6 1.1 1493.4 1.1 653.8 1969.9" />
      </g>
      <g>
        <polygon class="st4" points="670.6 1969.4 679.1 1969.4 1517.3 1.1 1510 1.1 670.6 1969.4" />
        <polygon class="st4" points="689.1 1969.3 697.6 1969.3 1535.7 1.1 1528.4 1.1 689.1 1969.3" />
        <polygon class="st4" points="707.3 1969.3 715.9 1969.3 1553.9 1.1 1546.7 1.1 707.3 1969.3" />
        <polygon class="st4" points="724.8 1969.3 733.4 1969.3 1571.5 1.1 1564.2 1.1 724.8 1969.3" />
        <polygon class="st4" points="743.4 1969.3 751.9 1969.3 1590 1.1 1582.8 1.1 743.4 1969.3" />
        <polygon class="st4" points="761.4 1969.3 770 1969.3 1608 1.1 1600.8 1.1 761.4 1969.3" />
        <polygon class="st4" points="779.6 1969.3 788.2 1969.3 1626.3 1.1 1619 1.1 779.6 1969.3" />
        <polygon class="st4" points="797.4 1969.7 805.9 1969.7 1644.2 1.1 1636.9 1.1 797.4 1969.7" />
        <polygon class="st4" points="815.9 1970.1 824.5 1970.1 1662.9 1.1 1655.6 1.1 815.9 1970.1" />
        <polygon class="st4" points="833.2 1970.1 841.7 1970.1 1680.1 1.1 1672.9 1.1 833.2 1970.1" />
        <polygon class="st4" points="851.5 1970.1 860 1970.1 1698.4 1.1 1691.2 1.1 851.5 1970.1" />
        <polygon class="st4" points="869.2 1970.1 877.8 1970.1 1716.2 1.1 1709 1.1 869.2 1970.1" />
        <polygon class="st4" points="887.3 1970.1 895.9 1970.1 1734.3 1.1 1727 1.1 887.3 1970.1" />
      </g>
        </g>
        <!-- Motion Path Animation -->
        <animateTransform
            attributeName="transform"
            type="translate"
            from="-1303,2800"
            to="1075,-2800"   
            dur="35s"
            repeatCount="indefinite"
            />
        </g>
    </g>
  <g id="wline2">
    <g>
      <g>
        <polygon class="st4" points="1856.8 1 1265.4 1387.6 1274 1387.6 1864.4 1 1856.8 1" />
        <polygon class="st4" points="1875.2 1 1283.9 1387.5 1292.5 1387.5 1882.8 1 1875.2 1" />
        <polygon class="st4" points="1893.4 1 1302.1 1387.5 1310.7 1387.5 1901 1 1893.4 1" />
        <polygon class="st4" points="1911 1 1319.7 1387.5 1328.2 1387.5 1918.6 1 1911 1" />
        <polygon class="st4" points="1929.5 1 1338.2 1387.5 1346.8 1387.5 1937.1 1 1929.5 1" />
        <polygon class="st4" points="1947.5 1 1356.2 1387.5 1364.8 1387.5 1955.2 1 1947.5 1" />
        <polygon class="st4" points="1965.8 1 1374.5 1387.5 1383 1387.5 1973.4 1 1965.8 1" />
      </g>
      <g>
        <polygon class="st4" points="1982.7 1 1391.3 1387.7 1399.9 1387.7 1990.3 1 1982.7 1" />
        <polygon class="st4" points="2001.1 1 1409.8 1387.6 1418.3 1387.6 2008.7 1 2001.1 1" />
        <polygon class="st4" points="2019.4 1 1428 1387.6 1436.6 1387.6 2027 1 2019.4 1" />
        <polygon class="st4" points="2036.9 1 1445.6 1387.6 1454.1 1387.6 2044.5 1 2036.9 1" />
        <polygon class="st4" points="2055.4 1 1464.1 1387.6 1472.6 1387.6 2063.1 1 2055.4 1" />
        <polygon class="st4" points="2073.5 1 1482.1 1387.6 1490.7 1387.6 2081.1 1 2073.5 1" />
        <polygon class="st4" points="2091.7 1 1500.4 1387.6 1508.9 1387.6 2099.3 1 2091.7 1" />
      </g>
      <g>
        <polygon class="st4" points="2108.9 1 1517.6 1387.5 1526.1 1387.5 2116.5 1 2108.9 1" />
        <polygon class="st4" points="2127.3 1 1536 1387.3 1544.6 1387.3 2134.9 1 2127.3 1" />
        <polygon class="st4" points="2145.5 1 1554.3 1387.3 1562.8 1387.3 2153.1 1 2145.5 1" />
        <polygon class="st4" points="2163.1 1 1571.8 1387.3 1580.4 1387.3 2170.7 1 2163.1 1" />
        <polygon class="st4" points="1590.4 1387.3 1598.9 1387.3 2189.2 1 2181.6 1 1590.4 1387.3" />
        <polygon class="st4" points="1608.4 1387.3 1617 1387.3 2207.3 1 2199.6 1 1608.4 1387.3" />
        <polygon class="st4" points="1626.6 1387.3 1635.2 1387.3 2225.5 1 2217.9 1 1626.6 1387.3" />
      </g>
      <g>
        <polygon class="st4" points="1645 1387.5 1653.6 1387.5 2243.9 1 2236.3 1 1645 1387.5" />
        <polygon class="st4" points="1663.5 1387.3 1672.1 1387.3 2262.3 1 2254.7 1 1663.5 1387.3" />
        <polygon class="st4" points="1681.7 1387.3 1690.3 1387.3 2280.6 1 2273 1 1681.7 1387.3" />
        <polygon class="st4" points="1699.3 1387.3 1707.8 1387.3 2298.1 1 2290.5 1 1699.3 1387.3" />
        <polygon class="st4" points="1717.8 1387.3 1726.4 1387.3 2316.7 1 2309 1 1717.8 1387.3" />
        <polygon class="st4" points="1735.8 1387.3 1744.4 1387.3 2334.7 1 2327.1 1 1735.8 1387.3" />
        <polygon class="st4" points="1754.1 1387.3 1762.6 1387.3 2352.9 1 2345.3 1 1754.1 1387.3" />
      </g>
      <polygon class="st4" points="1771.3 1387.3 1779.9 1387.3 2370.1 1 2362.5 1 1771.3 1387.3" />
      <polygon class="st4" points="1787 1387.7 1795.6 1387.7 2386 1 2378.4 1 1787 1387.7" />
    </g>
              <!-- Motion Path Animation -->
              <animateTransform
              attributeName="transform"
              type="translate"
              from="800,-2000"
              to="-1560,3600"   
              dur="50s"
              repeatCount="indefinite"
          />
        </g>
</g>
  <g id="wline1">
    <g>
      <g>
        <polygon class="st4" points="2338.1 233.6 1243.7 2799.9 1252.1 2799.9 2344.8 233.6 2338.1 233.6" />
        <polygon class="st4" points="2356.6 233.5 1262.1 2799.9 1270.5 2799.9 2363.2 233.5 2356.6 233.5" />
        <polygon class="st4" points="2374.8 233.5 1280.3 2799.9 1288.7 2799.9 2381.5 233.5 2374.8 233.5" />
        <polygon class="st4" points="2392.4 233.5 1297.9 2799.9 1306.3 2799.9 2399 233.5 2392.4 233.5" />
        <polygon class="st4" points="2410.9 233.5 1316.4 2799.9 1324.8 2799.9 2417.6 233.5 2410.9 233.5" />
        <polygon class="st4" points="2428.9 233.5 1334.4 2799.9 1342.8 2799.9 2435.6 233.5 2428.9 233.5" />
        <polygon class="st4" points="2447.2 233.5 1352.7 2799.9 1361.1 2799.9 2453.8 233.5 2447.2 233.5" />
      </g>
      <g>
        <polygon class="st4" points="2464 233.7 1369.6 2799.9 1378 2799.9 2470.7 233.7 2464 233.7" />
        <polygon class="st4" points="2482.5 233.6 1388 2799.9 1396.4 2799.9 2489.1 233.6 2482.5 233.6" />
        <polygon class="st4" points="2500.7 233.6 1406.2 2799.9 1414.7 2799.9 2507.4 233.6 2500.7 233.6" />
        <polygon class="st4" points="2518.2 233.6 1423.8 2799.9 1432.2 2799.9 2524.9 233.6 2518.2 233.6" />
        <polygon class="st4" points="2536.8 233.6 1442.3 2799.9 1450.7 2799.9 2543.4 233.6 2536.8 233.6" />
        <polygon class="st4" points="2554.8 233.6 1460.4 2799.9 1468.8 2799.9 2561.5 233.6 2554.8 233.6" />
        <polygon class="st4" points="2573 233.6 1478.6 2799.9 1487 2799.9 2579.7 233.6 2573 233.6" />
      </g>
      <g>
        <polygon class="st4" points="2590.3 233.5 1495.7 2799.9 1504.1 2799.9 2596.9 233.5 2590.3 233.5" />
        <polygon class="st4" points="2608.7 233.3 1514.2 2799.9 1522.6 2799.9 2615.4 233.3 2608.7 233.3" />
        <polygon class="st4" points="2627 233.3 1532.4 2799.9 1540.8 2799.9 2633.6 233.3 2627 233.3" />
        <polygon class="st4" points="2644.5 233.3 1549.9 2799.9 1558.3 2799.9 2651.2 233.3 2644.5 233.3" />
        <polygon class="st4" points="2663 233.3 1568.5 2799.9 1576.9 2799.9 2669.7 233.3 2663 233.3" />
        <polygon class="st4" points="2681.1 233.3 1586.5 2799.9 1594.9 2799.9 2687.8 233.3 2681.1 233.3" />
        <polygon class="st4" points="2699.3 233.3 1604.7 2799.9 1613.1 2799.9 2706 233.3 2699.3 233.3" />
      </g>
      <g>
        <polygon class="st4" points="2717.7 233.5 1623.2 2799.9 1631.6 2799.9 2724.4 233.5 2717.7 233.5" />
        <polygon class="st4" points="2736.2 233.3 1641.6 2799.9 1650 2799.9 2742.9 233.3 2736.2 233.3" />
        <polygon class="st4" points="2754.4 233.3 1659.8 2799.9 1668.2 2799.9 2761.1 233.3 2754.4 233.3" />
        <polygon class="st4" points="2772 233.3 1677.4 2799.9 1685.8 2799.9 2778.6 233.3 2772 233.3" />
        <polygon class="st4" points="2790.5 233.3 1695.9 2799.9 1704.3 2799.9 2797.2 233.3 2790.5 233.3" />
        <polygon class="st4" points="2808.5 233.3 1713.9 2799.9 1722.3 2799.9 2815.2 233.3 2808.5 233.3" />
        <polygon class="st4" points="2826.8 233.3 1732.2 2799.9 1740.6 2799.9 2833.4 233.3 2826.8 233.3" />
      </g>
      <g>
        <polygon class="st4" points="2844 233.3 1749.4 2799.9 1757.8 2799.9 2850.6 233.3 2844 233.3" />
        <polygon class="st4" points="2862.5 233.2 1767.8 2799.9 1776.2 2799.9 2869.1 233.2 2862.5 233.2" />
        <polygon class="st4" points="2880.7 233.2 1786 2799.9 1794.4 2799.9 2887.4 233.2 2880.7 233.2" />
        <polygon class="st4" points="2898.2 233.2 1803.6 2799.9 1812 2800 2904.9 233.2 2898.2 233.2" />
        <polygon class="st4" points="2916.8 233.2 1822.1 2800 1830.5 2800 2923.4 233.2 2916.8 233.2" />
        <polygon class="st4" points="2934.8 233.2 1840.1 2800 1848.6 2800 2941.5 233.2 2934.8 233.2" />
        <polygon class="st4" points="2953 233.2 1858.4 2800 1866.8 2800 2959.7 233.2 2953 233.2" />
      </g>
      <g>
        <polygon class="st4" points="2969.9 232.8 1875 2800 1883.4 2800 2976.5 232.8 2969.9 232.8" />
        <polygon class="st4" points="2988.3 232.6 1893.4 2800 1901.8 2800 2995 232.6 2988.3 232.6" />
        <polygon class="st4" points="3006.6 232.6 1911.7 2800 1920.1 2800 3013.2 232.6 3006.6 232.6" />
        <polygon class="st4" points="3024.1 232.6 1929.2 2800 1937.6 2800 3030.8 232.6 3024.1 232.6" />
        <polygon class="st4" points="3042.7 232.6 1947.7 2800 1956.1 2800 3049.3 232.6 3042.7 232.6" />
        <polygon class="st4" points="3060.7 232.6 1965.8 2800 1974.2 2800 3067.4 232.6 3060.7 232.6" />
        <polygon class="st4" points="3078.9 232.6 1984 2800 1992.4 2800 3085.6 232.6 3078.9 232.6" />
        <polygon class="st4" points="3096.7 233 2001.9 2800 2010.3 2800 3103.3 233 3096.7 233" />
        <polygon class="st4" points="3115.2 233.5 2020.6 2800 2029 2800 3121.8 233.5 3115.2 233.5" />
        <polygon class="st4" points="3132.4 233.5 2037.9 2800 2046.3 2800 3139.1 233.5 3132.4 233.5" />
        <polygon class="st4" points="3150.7 233.5 2056.2 2800 2064.6 2800 3157.4 233.5 3150.7 233.5" />
        <polygon class="st4" points="3168.5 233.5 2074 2800 2082.4 2800 3175.2 233.5 3168.5 233.5" />
        <polygon class="st4" points="3186.6 233.5 2092 2800 2100.4 2800 3193.2 233.5 3186.6 233.5" />
      </g>
    </g>
  </g>
  <polygon id="Weis3" class="st1" points="2640.3 2799.9 3833.9 1 3877 1 2682.5 2799.9 2640.3 2799.9" />
  <polygon id="Weis2" class="st1" points="4621.7 2799.9 5815.4 1 5858.5 1 4664 2799.9 4621.7 2799.9" />
  <polygon id="Weis1" class="st1" points="4987.7 2800 6181.4 1.1 6224.5 1.1 5030 2800 4987.7 2800" />
</svg>